<svg width="26" height="26" viewBox="0 0 26 26" fill="none" xmlns="http://www.w3.org/2000/svg">
<path d="M21.6667 3.25H4.33341C3.13091 3.25 2.16675 4.21417 2.16675 5.41667V18.4167C2.16675 19.6083 3.13091 20.5833 4.33341 20.5833H8.66675V22.75H17.3334V20.5833H21.6667C22.8584 20.5833 23.8334 19.6083 23.8334 18.4167V5.41667C23.8334 4.21417 22.8584 3.25 21.6667 3.25ZM21.6667 18.4167H4.33341V5.41667H21.6667V18.4167Z" fill="black"/>
<path d="M15.1667 8.9375H6.50008V10.5625H15.1667V8.9375Z" fill="black"/>
<path d="M17.8751 10.5625H19.5001V8.9375H17.8751V7.58333H16.2501V11.9167H17.8751V10.5625Z" fill="black"/>
<path d="M19.5001 13.2708H10.8334V14.8958H19.5001V13.2708Z" fill="black"/>
<path d="M8.12508 16.25H9.75008V11.9167H8.12508V13.2708H6.50008V14.8958H8.12508V16.25Z" fill="black"/>
</svg>
