<svg width="20" height="20" viewBox="0 0 20 20" fill="none" xmlns="http://www.w3.org/2000/svg">
<path d="M20 10C20 15.5228 15.5228 20 10 20C4.47715 20 0 15.5228 0 10C0 4.47715 4.47715 0 10 0C15.5228 0 20 4.47715 20 10ZM2.05458 10C2.05458 14.3881 5.61187 17.9454 10 17.9454C14.3881 17.9454 17.9454 14.3881 17.9454 10C17.9454 5.61187 14.3881 2.05458 10 2.05458C5.61187 2.05458 2.05458 5.61187 2.05458 10Z" fill="#F5CB69"/>
<path d="M17 10C17 9.08075 16.8189 8.1705 16.4672 7.32122C16.1154 6.47194 15.5998 5.70026 14.9497 5.05025C14.2997 4.40024 13.5281 3.88463 12.6788 3.53284C11.8295 3.18106 10.9193 3 10 3L10 10H17Z" fill="#F5CB69"/>
<path d="M20 10C20 15.5228 15.5228 20 10 20C4.47715 20 0 15.5228 0 10C0 4.47715 4.47715 0 10 0C15.5228 0 20 4.47715 20 10ZM2.05458 10C2.05458 14.3881 5.61187 17.9454 10 17.9454C14.3881 17.9454 17.9454 14.3881 17.9454 10C17.9454 5.61187 14.3881 2.05458 10 2.05458C5.61187 2.05458 2.05458 5.61187 2.05458 10Z" fill="#F5CB69"/>
<path d="M17 10C17 9.08075 16.8189 8.1705 16.4672 7.32122C16.1154 6.47194 15.5998 5.70026 14.9497 5.05025C14.2997 4.40024 13.5281 3.88463 12.6788 3.53284C11.8295 3.18106 10.9193 3 10 3L10 10H17Z" fill="#F5CB69"/>
</svg>
