<svg width="92" height="98" viewBox="0 0 92 98" fill="none" xmlns="http://www.w3.org/2000/svg">
<path d="M42.4174 47.5106H28.9455V40.3335H42.4253V47.5143L42.4174 47.5106ZM55.8972 0.346191V22.9039H79.6154L55.8972 0.346191ZM61.2852 40.3335H47.8054V47.5143H61.2852V40.3335ZM61.2852 52.6387H47.8054V59.8196H61.2852V52.6387ZM79.6114 24.7837V84.4262C79.6114 87.8249 76.7178 90.577 73.1443 90.577H17.0825C16.2332 90.577 15.3923 90.4179 14.6076 90.1088C13.823 89.7997 13.1101 89.3466 12.5095 88.7755C11.2967 87.622 10.6154 86.0575 10.6154 84.4262V6.49692C10.6154 3.09823 13.509 0.346191 17.0825 0.346191H53.9168V24.7837H79.6114ZM66.6732 35.2091H23.5496V64.9439H66.6771V35.2053L66.6732 35.2091ZM42.4174 52.6387H28.9455V59.8196H42.4253V52.6387H42.4174Z" fill="#C7CCCF"/>
<circle cx="69" cy="74.6539" r="17.6923" fill="#9DA4A8"/>
<path d="M69.0001 67.2821V82.0257M61.6283 74.6539H76.3719H61.6283Z" stroke="#FAFAFA" stroke-width="2" stroke-linecap="round" stroke-linejoin="round"/>
</svg>
