<svg width="70" height="91" viewBox="0 0 70 91" fill="none" xmlns="http://www.w3.org/2000/svg">
<path d="M32.4174 47.1644H18.9455V39.9873H32.4253V47.1681L32.4174 47.1644ZM45.8972 0V22.5577H69.6154L45.8972 0ZM51.2852 39.9873H37.8054V47.1681H51.2852V39.9873ZM51.2852 52.2925H37.8054V59.4734H51.2852V52.2925ZM69.6114 24.4375V84.08C69.6114 87.4787 66.7178 90.2308 63.1443 90.2308H7.0825C6.23322 90.2308 5.39226 90.0717 4.60763 89.7626C3.823 89.4535 3.11007 89.0004 2.50954 88.4293C1.29671 87.2758 0.615356 85.7113 0.615356 84.08V6.15073C0.615356 2.75204 3.50897 0 7.0825 0H43.9168V24.4375H69.6114ZM56.6732 34.8629H13.5496V64.5977H56.6771V34.8592L56.6732 34.8629ZM32.4174 52.2925H18.9455V59.4734H32.4253V52.2925H32.4174Z" fill="#00B7B7"/>
</svg>
