<svg width="17" height="19" viewBox="0 0 17 19" fill="none" xmlns="http://www.w3.org/2000/svg">
<path d="M14.5825 2.69873H13.7075V1.82373C13.7075 1.34248 13.3138 0.94873 12.8325 0.94873C12.3513 0.94873 11.9575 1.34248 11.9575 1.82373V2.69873H4.95752V1.82373C4.95752 1.34248 4.56377 0.94873 4.08252 0.94873C3.60127 0.94873 3.20752 1.34248 3.20752 1.82373V2.69873H2.33252C1.36127 2.69873 0.59127 3.48623 0.59127 4.44873L0.58252 16.6987C0.58252 17.6612 1.36127 18.4487 2.33252 18.4487H14.5825C15.545 18.4487 16.3325 17.6612 16.3325 16.6987V4.44873C16.3325 3.48623 15.545 2.69873 14.5825 2.69873ZM14.5825 15.8237C14.5825 16.305 14.1888 16.6987 13.7075 16.6987H3.20752C2.72627 16.6987 2.33252 16.305 2.33252 15.8237V7.07373H14.5825V15.8237ZM4.08252 8.82373H5.83252V10.5737H4.08252V8.82373ZM7.58252 8.82373H9.33252V10.5737H7.58252V8.82373ZM11.0825 8.82373H12.8325V10.5737H11.0825V8.82373Z" fill="#768085"/>
</svg>
