<svg width="9" height="7" viewBox="0 0 9 7" fill="none" xmlns="http://www.w3.org/2000/svg">
<g clip-path="url(#clip0_13_635)">
<path d="M4.50001 6.51294C4.68789 6.51307 4.87263 6.47547 5.03634 6.40378C5.20006 6.33209 5.33721 6.22874 5.43451 6.10373L8.47576 2.15544C8.57236 2.02698 8.6239 1.88104 8.62522 1.73222C8.62654 1.5834 8.5776 1.43692 8.48329 1.30743C8.38898 1.17795 8.25261 1.06999 8.08781 0.99436C7.92302 0.918731 7.73559 0.878082 7.54426 0.876481H1.45988C1.26872 0.877529 1.08125 0.917565 0.916208 0.992589C0.751161 1.06761 0.614307 1.175 0.51931 1.30403C0.424314 1.43306 0.3745 1.57921 0.374841 1.72789C0.375182 1.87658 0.425667 2.02259 0.521255 2.15136L3.56476 6.10227C3.66216 6.22744 3.79939 6.33098 3.9632 6.40291C4.12701 6.47484 4.31189 6.51274 4.50001 6.51294Z" fill="#636A6D"/>
</g>
<defs>
<clipPath id="clip0_13_635">
<rect width="9" height="7" fill="white" transform="matrix(-1 0 0 -1 9 7)"/>
</clipPath>
</defs>
</svg>
