<svg width="22" height="20" viewBox="0 0 22 20" fill="none" xmlns="http://www.w3.org/2000/svg">
<path d="M19.6667 0.25H2.33332C1.13082 0.25 0.166656 1.21417 0.166656 2.41667V15.4167C0.166656 16.6083 1.13082 17.5833 2.33332 17.5833H6.66666V19.75H15.3333V17.5833H19.6667C20.8583 17.5833 21.8333 16.6083 21.8333 15.4167V2.41667C21.8333 1.21417 20.8583 0.25 19.6667 0.25ZM19.6667 15.4167H2.33332V2.41667H19.6667V15.4167Z" fill="black"/>
<path d="M13.1667 5.9375H4.49999V7.5625H13.1667V5.9375Z" fill="black"/>
<path d="M15.875 7.5625H17.5V5.9375H15.875V4.58333H14.25V8.91667H15.875V7.5625Z" fill="black"/>
<path d="M17.5 10.2708H8.83332V11.8958H17.5V10.2708Z" fill="black"/>
<path d="M6.12499 13.25H7.74999V8.91667H6.12499V10.2708H4.49999V11.8958H6.12499V13.25Z" fill="black"/>
</svg>
