<svg width="40" height="40" viewBox="0 0 40 40" fill="none" xmlns="http://www.w3.org/2000/svg">
<path d="M18.8216 3.82167C19.1342 3.50922 19.558 3.33369 20 3.33369C20.4419 3.33369 20.8657 3.50922 21.1783 3.82167L27.845 10.4883C28.1486 10.8027 28.3165 11.2237 28.3127 11.6607C28.309 12.0977 28.1337 12.5157 27.8247 12.8247C27.5156 13.1337 27.0976 13.309 26.6606 13.3128C26.2236 13.3166 25.8026 13.1486 25.4883 12.845L21.6666 9.02334V26.6667C21.6666 27.1087 21.491 27.5326 21.1785 27.8452C20.8659 28.1577 20.442 28.3333 20 28.3333C19.5579 28.3333 19.134 28.1577 18.8214 27.8452C18.5089 27.5326 18.3333 27.1087 18.3333 26.6667V9.02334L14.5116 12.845C14.1973 13.1486 13.7763 13.3166 13.3393 13.3128C12.9023 13.309 12.4843 13.1337 12.1753 12.8247C11.8662 12.5157 11.691 12.0977 11.6872 11.6607C11.6834 11.2237 11.8514 10.8027 12.155 10.4883L18.8216 3.82167ZM8.33329 28.3333C8.77532 28.3333 9.19924 28.5089 9.5118 28.8215C9.82436 29.1341 9.99996 29.558 9.99996 30V33.3333H30V30C30 29.558 30.1756 29.1341 30.4881 28.8215C30.8007 28.5089 31.2246 28.3333 31.6666 28.3333C32.1087 28.3333 32.5326 28.5089 32.8451 28.8215C33.1577 29.1341 33.3333 29.558 33.3333 30V33.3333C33.3333 34.2174 32.9821 35.0652 32.357 35.6904C31.7319 36.3155 30.884 36.6667 30 36.6667H9.99996C9.1159 36.6667 8.26806 36.3155 7.64294 35.6904C7.01782 35.0652 6.66663 34.2174 6.66663 33.3333V30C6.66663 29.558 6.84222 29.1341 7.15478 28.8215C7.46734 28.5089 7.89127 28.3333 8.33329 28.3333Z" fill="#00B7B7"/>
</svg>
