<svg width="9" height="7" viewBox="0 0 9 7" fill="none" xmlns="http://www.w3.org/2000/svg">
<g clip-path="url(#clip0_13_633)">
<path d="M4.49999 0.487061C4.31211 0.48693 4.12737 0.524529 3.96366 0.596219C3.79994 0.667909 3.66279 0.771261 3.56549 0.896269L0.524244 4.84456C0.427643 4.97302 0.376104 5.11896 0.374782 5.26778C0.37346 5.4166 0.422402 5.56308 0.516712 5.69257C0.611021 5.82205 0.747393 5.93001 0.912186 6.00564C1.07698 6.08127 1.26441 6.12192 1.45574 6.12352H7.54012C7.73128 6.12247 7.91875 6.08244 8.08379 6.00741C8.24884 5.93239 8.38569 5.825 8.48069 5.69597C8.57569 5.56694 8.6255 5.42079 8.62516 5.27211C8.62482 5.12342 8.57433 4.97741 8.47874 4.84864L5.43524 0.897728C5.33784 0.772558 5.20061 0.669017 5.0368 0.597087C4.87299 0.525157 4.68811 0.487264 4.49999 0.487061Z" fill="#636A6D"/>
</g>
<defs>
<clipPath id="clip0_13_633">
<rect width="9" height="7" fill="white"/>
</clipPath>
</defs>
</svg>
