<svg width="22" height="22" viewBox="0 0 22 22" fill="none" xmlns="http://www.w3.org/2000/svg">
<g clip-path="url(#clip0_1411_23479)">
<path fill-rule="evenodd" clip-rule="evenodd" d="M15.4365 11.73C16.6353 12.5437 17.4753 13.6462 17.4753 15.1162V17.7412H20.1003C20.5815 17.7412 20.9753 17.3475 20.9753 16.8662V15.1162C20.9753 13.2087 17.8515 12.08 15.4365 11.73Z" fill="#768085"/>
<path d="M8.7251 10.7412C10.6581 10.7412 12.2251 9.17421 12.2251 7.24121C12.2251 5.30821 10.6581 3.74121 8.7251 3.74121C6.7921 3.74121 5.2251 5.30821 5.2251 7.24121C5.2251 9.17421 6.7921 10.7412 8.7251 10.7412Z" fill="#768085"/>
<path fill-rule="evenodd" clip-rule="evenodd" d="M13.9748 10.7412C15.9085 10.7412 17.4748 9.17496 17.4748 7.24121C17.4748 5.30746 15.9085 3.74121 13.9748 3.74121C13.5635 3.74121 13.1785 3.82871 12.811 3.95121C13.5373 4.85246 13.9748 5.99871 13.9748 7.24121C13.9748 8.48371 13.5373 9.62996 12.811 10.5312C13.1785 10.6537 13.5635 10.7412 13.9748 10.7412Z" fill="#768085"/>
<path fill-rule="evenodd" clip-rule="evenodd" d="M8.7251 11.6162C6.38885 11.6162 1.7251 12.7887 1.7251 15.1162V16.8662C1.7251 17.3475 2.11885 17.7412 2.6001 17.7412H14.8501C15.3313 17.7412 15.7251 17.3475 15.7251 16.8662V15.1162C15.7251 12.7887 11.0613 11.6162 8.7251 11.6162Z" fill="#768085"/>
</g>
<defs>
<clipPath id="clip0_1411_23479">
<rect width="21" height="21" fill="white" transform="translate(0.850098 0.241211)"/>
</clipPath>
</defs>
</svg>
