<svg width="50" height="53" viewBox="0 0 50 53" fill="none" xmlns="http://www.w3.org/2000/svg">
<path d="M3.36573 9.13343C3.36573 7.50597 4.01224 5.94516 5.16303 4.79437C6.31382 3.64358 7.87463 2.99707 9.50209 2.99707H33.2294C34.8568 2.99707 36.4176 3.64358 37.5684 4.79437C38.7192 5.94516 39.3657 7.50597 39.3657 9.13343V32.8607C39.3657 34.1223 38.9845 35.2956 38.3315 36.2709L23.6534 21.9249C23.0419 21.3272 22.2208 20.9926 21.3657 20.9926C20.5107 20.9926 19.6896 21.3272 19.0781 21.9249L4.39991 36.2709C3.72364 35.2623 3.36356 34.075 3.36573 32.8607V9.13343ZM6.14428 37.9989C7.10973 38.6289 8.26337 38.9971 9.50209 38.9971H33.2294C34.4681 38.9971 35.6217 38.6289 36.5872 37.9989L21.9385 23.6807C21.7855 23.5308 21.5799 23.4468 21.3657 23.4468C21.1516 23.4468 20.9459 23.5308 20.793 23.6807L6.14428 37.9989ZM32.4112 14.4516C32.4112 13.4751 32.0233 12.5387 31.3328 11.8482C30.6423 11.1577 29.7058 10.7698 28.7294 10.7698C27.7529 10.7698 26.8164 11.1577 26.1259 11.8482C25.4355 12.5387 25.0475 13.4751 25.0475 14.4516C25.0475 15.4281 25.4355 16.3646 26.1259 17.0551C26.8164 17.7455 27.7529 18.1334 28.7294 18.1334C29.7058 18.1334 30.6423 17.7455 31.3328 17.0551C32.0233 16.3646 32.4112 15.4281 32.4112 14.4516Z" fill="#00B7B7"/>
<circle cx="36.3657" cy="36.9969" r="6" fill="#009292"/>
<path d="M36.3658 34.4965V39.4965M33.8658 36.9965H38.8658H33.8658Z" stroke="#FAFAFA" stroke-width="1.0741" stroke-linecap="round" stroke-linejoin="round"/>
</svg>
