<svg width="20" height="16" viewBox="0 0 20 16" fill="none" xmlns="http://www.w3.org/2000/svg">
<path d="M18 0H2C0.89 0 0.00999999 0.89 0.00999999 2L0 14C0 15.11 0.89 16 2 16H18C19.11 16 20 15.11 20 14V2C20 0.89 19.11 0 18 0ZM6.5 10.21C6.5 10.64 6.14 11 5.71 11C5.46 11 5.22 10.88 5.07 10.67L2.75 7.5V10.38C2.75 10.73 2.47 11 2.13 11C1.79 11 1.5 10.72 1.5 10.38V5.79C1.5 5.36 1.86 5 2.29 5H2.34C2.6 5 2.84 5.12 2.99 5.33L5.25 8.5V5.62C5.25 5.28 5.53 5 5.88 5C6.23 5 6.5 5.28 6.5 5.62V10.21ZM11.5 5.64C11.5 5.99 11.22 6.26 10.88 6.26H9V7.38H10.88C11.23 7.38 11.5 7.66 11.5 8V8.01C11.5 8.36 11.22 8.63 10.88 8.63H9V9.74H10.88C11.23 9.74 11.5 10.02 11.5 10.36C11.5 10.71 11.22 10.98 10.88 10.98H8.35C7.88 10.98 7.5 10.6 7.5 10.13V5.83C7.5 5.38 7.88 5 8.35 5H10.88C11.23 5 11.5 5.28 11.5 5.62V5.64ZM18.5 10C18.5 10.55 18.05 11 17.5 11H13.5C12.95 11 12.5 10.55 12.5 10V5.62C12.5 5.28 12.78 5 13.12 5C13.46 5 13.74 5.28 13.74 5.62V9.51H14.87V6.61C14.87 6.26 15.15 5.99 15.49 5.99C15.83 5.99 16.11 6.27 16.11 6.61V9.5H17.23V5.62C17.23 5.27 17.51 5 17.85 5C18.19 5 18.47 5.28 18.47 5.62V10H18.5Z" fill="#00B7B7"/>
</svg>
