<svg width="145" height="145" viewBox="0 0 145 145" fill="none" xmlns="http://www.w3.org/2000/svg">
<path d="M31.6667 128C28.7333 128 26.2231 126.956 24.136 124.869C22.0489 122.782 21.0036 120.27 21 117.333V42.6667C21 39.7333 22.0453 37.2231 24.136 35.136C26.2267 33.0489 28.7369 32.0036 31.6667 32H106.333C109.267 32 111.779 33.0453 113.869 35.136C115.96 37.2267 117.004 39.7369 117 42.6667V117.333C117 120.267 115.956 122.779 113.869 124.869C111.782 126.96 109.27 128.004 106.333 128H31.6667ZM69 101.333C72.3778 101.333 75.4444 100.356 78.2 98.4C80.9556 96.4444 82.8667 93.8667 83.9333 90.6667H106.333V42.6667H31.6667V90.6667H54.0667C55.1333 93.8667 57.0444 96.4444 59.8 98.4C62.5556 100.356 65.6222 101.333 69 101.333Z" fill="#C4CACE"/>
<circle cx="109.844" cy="109.375" r="34.1651" fill="#9DA4A8" stroke="#9DA4A8" stroke-width="0.458592"/>
<path d="M100.313 99.8446L120.309 119.841M100.313 119.841L120.309 99.8446L100.313 119.841Z" stroke="#FAFAFA" stroke-width="4.58592" stroke-linecap="round" stroke-linejoin="round"/>
</svg>
