<svg width="42" height="42" viewBox="0 0 42 42" fill="none" xmlns="http://www.w3.org/2000/svg">
<g clip-path="url(#clip0_2703_13904)">
<path d="M20.7253 26.1254C23.5834 26.1254 25.9003 23.8085 25.9003 20.9504C25.9003 18.0923 23.5834 15.7754 20.7253 15.7754C17.8672 15.7754 15.5503 18.0923 15.5503 20.9504C15.5503 23.8085 17.8672 26.1254 20.7253 26.1254Z" fill="#C7CCCF"/>
<path d="M34.5256 7.1502H29.0573L26.9183 4.82145C26.2801 4.1142 25.3486 3.7002 24.3826 3.7002H17.0686C16.1026 3.7002 15.1711 4.1142 14.5156 4.82145L12.3938 7.1502H6.92559C5.02809 7.1502 3.47559 8.7027 3.47559 10.6002V31.3002C3.47559 33.1977 5.02809 34.7502 6.92559 34.7502H34.5256C36.4231 34.7502 37.9756 33.1977 37.9756 31.3002V10.6002C37.9756 8.7027 36.4231 7.1502 34.5256 7.1502ZM20.7256 29.5752C15.9646 29.5752 12.1006 25.7112 12.1006 20.9502C12.1006 16.1892 15.9646 12.3252 20.7256 12.3252C25.4866 12.3252 29.3506 16.1892 29.3506 20.9502C29.3506 25.7112 25.4866 29.5752 20.7256 29.5752Z" fill="#C7CCCF"/>
</g>
<defs>
<clipPath id="clip0_2703_13904">
<rect width="41.4" height="41.4" fill="white" transform="translate(0.0253906 0.25)"/>
</clipPath>
</defs>
</svg>
